<svg xmlns="http://www.w3.org/2000/svg" xmlns:xlink="http://www.w3.org/1999/xlink" width="768" zoomAndPan="magnify" viewBox="0 0 576 576" height="768" preserveAspectRatio="xMidYMid meet" version="1.0"><defs><clipPath id="94cc637a1b"><path d="M 121.144531 57.601562 L 454.839844 57.601562 L 454.839844 518.0625 L 121.144531 518.0625 Z M 121.144531 57.601562 " clip-rule="nonzero"/></clipPath></defs><g clip-path="url(#94cc637a1b)"><path fill="#f7efd9" d="M 454.691406 188.195312 C 454.707031 180.382812 451.824219 175.15625 444.867188 171.589844 C 374.378906 135.40625 303.890625 99.207031 233.535156 62.785156 C 223.859375 57.761719 213.929688 56.679688 203.628906 58.34375 C 177.140625 62.605469 154.695312 74.933594 135.488281 93.441406 C 125.457031 103.113281 120.832031 114.816406 121.160156 128.75 C 121.605469 147.007812 123.539062 332.636719 123.597656 371.882812 C 123.613281 380.484375 126.734375 386.722656 133.707031 391.355469 C 135.503906 392.542969 137.316406 393.734375 139.160156 394.875 C 170.347656 414.140625 299.90625 494.800781 333.632812 515.640625 C 339.847656 519.472656 346.640625 518.386719 352.957031 514.941406 C 358.207031 512.089844 359.113281 507.277344 359.113281 501.8125 C 359.050781 415.730469 358.992188 329.636719 359.203125 243.558594 C 359.214844 235.449219 356.078125 230.441406 349.226562 226.640625 C 294.363281 196.171875 165.933594 124.441406 156.0625 118.902344 C 156.984375 117.640625 157.503906 116.867188 158.082031 116.140625 C 160.046875 113.628906 162.171875 111.402344 164.445312 109.351562 C 185.804688 121.042969 207.179688 132.730469 228.542969 144.40625 C 268.988281 166.539062 309.417969 188.65625 349.851562 210.773438 C 358.382812 215.4375 366.929688 220.105469 375.464844 224.78125 C 375.226562 257.847656 374.988281 290.929688 374.75 324.007812 C 374.363281 377.570312 373.976562 431.136719 373.605469 484.699219 C 373.589844 485.414062 373.589844 486.140625 373.589844 486.851562 L 382.109375 486.851562 C 382.257812 464.691406 382.417969 442.527344 382.582031 420.367188 C 382.96875 366.800781 383.355469 313.238281 383.742188 259.675781 C 383.832031 247.199219 383.90625 234.734375 384.011719 222.273438 C 384.011719 220.800781 383.191406 219.300781 381.898438 218.589844 C 356.675781 204.789062 331.464844 191.003906 306.253906 177.203125 C 265.820312 155.085938 225.375 132.96875 184.945312 110.851562 C 180.558594 108.460938 176.175781 106.054688 171.773438 103.648438 C 175.949219 100.871094 180.410156 98.523438 185.003906 96.429688 C 204.59375 107.449219 224.1875 118.472656 243.777344 129.480469 C 285.25 152.800781 326.722656 176.121094 368.179688 199.457031 L 394.847656 214.445312 C 394.609375 249.441406 394.371094 284.4375 394.148438 319.433594 L 393.0625 481.179688 L 401.582031 481.179688 L 401.980469 421.375 C 402.367188 364.589844 402.738281 307.816406 403.125 251.03125 C 403.214844 238.015625 403.304688 224.992188 403.394531 211.964844 C 403.394531 210.492188 402.574219 209.023438 401.28125 208.292969 C 375.300781 193.679688 349.316406 179.0625 323.332031 164.460938 C 281.875 141.125 240.402344 117.820312 198.929688 94.484375 C 197.625 93.753906 196.316406 93.011719 194.992188 92.269531 C 202.988281 89.550781 211.074219 90.605469 218.65625 94.691406 C 266.429688 120.328125 391.753906 187.664062 406.855469 195.253906 C 413.695312 198.699219 413.902344 198.28125 413.902344 205.992188 C 413.902344 287.464844 413.902344 368.957031 413.902344 450.445312 C 413.902344 462.015625 417.515625 466.59375 428.738281 469.296875 C 443.289062 472.816406 454.914062 463.992188 454.824219 449.285156 C 454.394531 362.257812 454.558594 275.226562 454.691406 188.195312 " fill-opacity="1" fill-rule="nonzero"/></g></svg>