<svg xmlns="http://www.w3.org/2000/svg" xmlns:xlink="http://www.w3.org/1999/xlink" width="768" zoomAndPan="magnify" viewBox="0 0 576 576" height="768" preserveAspectRatio="xMidYMid meet" version="1.0"><defs><clipPath id="b885eee80b"><path d="M 78.109375 76.589844 L 518.085938 76.589844 L 518.085938 499.589844 L 78.109375 499.589844 Z M 78.109375 76.589844 " clip-rule="nonzero"/></clipPath><clipPath id="ce129c70e6"><path d="M 212.457031 255 L 320 255 L 320 387 L 212.457031 387 Z M 212.457031 255 " clip-rule="nonzero"/></clipPath></defs><g clip-path="url(#b885eee80b)"><path fill="#f7efd9" d="M 391.242188 79.933594 C 394.503906 83.320312 394.109375 88.816406 390.382812 91.6875 L 298.65625 162.703125 C 298.5 162.824219 298.597656 163.0625 298.792969 163.0625 C 320.230469 163.0625 364.726562 163.015625 432.304688 162.921875 C 457.875 162.898438 472.9375 163.546875 477.488281 164.90625 C 494.757812 170.050781 507.28125 182.214844 515.046875 201.460938 C 516.789062 205.808594 517.753906 213.671875 517.894531 225.027344 C 518.0625 239.671875 518.132812 304.757812 518.0625 420.285156 C 518.039062 452.667969 490.234375 475.324219 458.210938 474.824219 C 457.074219 474.800781 456.082031 475.640625 455.929688 476.761719 L 453.503906 493.148438 C 452.984375 496.550781 450.078125 499.066406 446.628906 499.066406 L 433.636719 499.066406 C 430.484375 499.066406 427.726562 496.945312 426.910156 493.890625 L 422.414062 476.976562 C 422.085938 475.703125 420.917969 474.800781 419.597656 474.800781 L 178.296875 474.800781 C 177.449219 474.800781 176.742188 475.441406 176.679688 476.292969 C 176.320312 481.449219 175.90625 485.871094 174.945312 489.429688 C 173.972656 493.042969 172.4375 495.765625 169.863281 497.476562 C 166.453125 499.738281 161.191406 500.226562 152.90625 498.5625 C 151.671875 498.308594 150.632812 497.5 150.078125 496.386719 C 146.6875 489.550781 147.082031 480.996094 146.367188 476.046875 L 146.367188 476.042969 C 146.285156 475.386719 145.6875 474.929688 145.027344 474.988281 C 142.523438 475.179688 136.992188 475.0625 128.433594 474.65625 C 105.300781 473.484375 85.8125 454.28125 80.4375 432.394531 C 78.789062 425.6875 78.003906 417.117188 78.121094 406.640625 C 78.289062 389.847656 78.289062 331.433594 78.121094 231.363281 C 78.097656 216.226562 78.988281 206.105469 80.75 200.96875 C 88.925781 177.222656 110.304688 163.5625 135.511719 163.277344 C 160.257812 163.015625 195.597656 162.945312 241.519531 163.089844 C 241.886719 163.089844 242.050781 162.617188 241.757812 162.398438 L 212.390625 139.84375 C 208.285156 136.6875 207.699219 130.742188 211.070312 126.851562 C 211.011719 126.921875 211 127.023438 211.035156 127.105469 C 211.050781 127.140625 211.070312 127.167969 211.097656 127.191406 C 211.113281 127.171875 211.125 127.15625 211.140625 127.140625 C 211.117188 127.117188 211.097656 127.089844 211.082031 127.058594 C 211.054688 126.992188 211.054688 126.914062 211.089844 126.847656 L 211.085938 126.839844 L 211.132812 126.792969 C 214.332031 123.160156 219.800781 122.675781 223.605469 125.675781 C 240.808594 139.207031 254.398438 149.972656 264.347656 157.972656 C 266.449219 159.660156 268.566406 160.496094 270.707031 160.46875 C 272.855469 160.441406 275.019531 159.542969 277.203125 157.78125 C 283.558594 152.710938 317.253906 126.300781 378.285156 78.570312 C 382.121094 75.566406 387.589844 76.007812 390.910156 79.574219 L 391.242188 79.929688 L 391.242188 79.933594 L 391.140625 80.167969 C 391.171875 80.199219 391.203125 80.234375 391.230469 80.265625 C 391.253906 80.246094 391.273438 80.21875 391.289062 80.1875 C 391.324219 80.101562 391.308594 80 391.242188 79.933594 Z M 436.1875 248.582031 C 436.207031 252.140625 439.121094 255.011719 442.675781 254.992188 L 477.085938 254.75 C 480.640625 254.726562 483.507812 251.8125 483.488281 248.25 L 483.484375 247.679688 C 483.464844 244.121094 480.550781 241.246094 476.992188 241.273438 L 442.585938 241.511719 C 439.03125 241.535156 436.160156 244.449219 436.179688 248.011719 Z M 476.96875 407.117188 C 476.96875 397.4375 469.128906 389.589844 459.453125 389.589844 C 449.78125 389.589844 441.941406 397.4375 441.941406 407.117188 C 441.941406 416.796875 449.78125 424.644531 459.453125 424.644531 C 469.128906 424.644531 476.96875 416.796875 476.96875 407.117188 Z M 436.300781 288.421875 L 436.304688 288.992188 C 436.304688 292.648438 439.265625 295.617188 442.929688 295.601562 L 476.910156 295.539062 C 480.570312 295.523438 483.511719 292.558594 483.511719 288.910156 L 483.507812 288.335938 C 483.511719 284.675781 480.550781 281.710938 476.882812 281.726562 L 442.902344 281.789062 C 439.242188 281.804688 436.304688 284.769531 436.300781 288.421875 Z M 378.683594 420.019531 C 398.199219 406.960938 404.019531 386.207031 405.488281 361.449219 C 407.082031 334.832031 407.011719 303.859375 405.320312 268.503906 C 404.230469 245.808594 401.59375 226 383.1875 211.210938 C 369.996094 200.621094 353.285156 197.136719 334.253906 195.878906 C 282.871094 192.5 231.222656 192.855469 179.316406 196.953125 C 144.320312 199.707031 119.207031 221.390625 116.765625 257.195312 C 114.503906 290.597656 114.21875 324.835938 115.929688 359.855469 C 116.953125 380.824219 121.878906 399.25 137.84375 414.351562 C 148.964844 424.863281 162.242188 430.792969 177.675781 432.171875 C 236.765625 437.433594 292.144531 437.457031 343.789062 432.195312 C 356.90625 430.867188 368.554688 426.808594 378.683594 420.019531 Z M 378.683594 420.019531 " fill-opacity="1" fill-rule="nonzero"/></g><g clip-path="url(#ce129c70e6)"><path fill="#f7efd9" d="M 227.105469 384.472656 C 219.1875 389.417969 212.710938 385.816406 212.710938 376.472656 L 212.710938 265.90625 C 212.710938 256.558594 219.1875 252.960938 227.105469 257.90625 L 314.007812 312.199219 C 321.921875 317.144531 321.921875 325.238281 314.007812 330.183594 Z M 227.105469 384.472656 " fill-opacity="1" fill-rule="nonzero"/></g></svg>